<svg xmlns="http://www.w3.org/2000/svg" viewBox="0 0 166.53 49.99"><defs><style>.a,.b{fill:none;stroke-width:3px;}.a{stroke:#fff;}.b{stroke:#ec2726;}.c{isolation:isolate;}.d{fill:#dfdfdf;}</style></defs><title>go-to-dashboard</title><line class="a" x1="143.53" y1="48.49" x2="165.41" y2="23.74"/><line class="a" x1="143.53" y1="0.99" x2="165.41" y2="25.74"/><line class="b" x1="104.98" y1="48.49" x2="30.85" y2="48.49"/><g class="c"><path class="d" d="M0,37.77V7H6.73a8.38,8.38,0,0,1,4.78,1.18,6.24,6.24,0,0,1,2.4,3.19,14.06,14.06,0,0,1,.68,4.49V28.61a15.14,15.14,0,0,1-.68,4.7,6.37,6.37,0,0,1-2.34,3.26,7.8,7.8,0,0,1-4.65,1.2Zm2.05-1.63H6.8a5.57,5.57,0,0,0,3.73-1.07,5,5,0,0,0,1.59-2.83,17.82,17.82,0,0,0,.38-3.85V16a14.93,14.93,0,0,0-.45-3.9,4.49,4.49,0,0,0-1.71-2.54,6.15,6.15,0,0,0-3.61-.9H2.05Z"/><path class="d" d="M22.65,38.11a4.38,4.38,0,0,1-2.32-.6,4.2,4.2,0,0,1-1.54-1.69,5.43,5.43,0,0,1-.55-2.49,7.59,7.59,0,0,1,.36-2.46,5.05,5.05,0,0,1,1.31-1.95A13.67,13.67,0,0,1,22.63,27c1.18-.67,2.7-1.45,4.58-2.34V23.1a18.72,18.72,0,0,0-.29-3.72,3.09,3.09,0,0,0-1-1.86,2.76,2.76,0,0,0-1.8-.53,4.66,4.66,0,0,0-1.67.3,2.52,2.52,0,0,0-1.31,1.2,5.28,5.28,0,0,0-.52,2.64v.57h-2A7.24,7.24,0,0,1,20,17c.85-1,2.27-1.54,4.27-1.54a4.24,4.24,0,0,1,3.88,1.74q1.1,1.75,1.1,5.67V33.93c0,.21,0,.59,0,1.16s0,1.12,0,1.66a7.61,7.61,0,0,0,.06,1H27.59c-.05-.53-.12-1.09-.19-1.67s-.13-1-.15-1.25a5.09,5.09,0,0,1-1.71,2.31A4.55,4.55,0,0,1,22.65,38.11Zm.49-1.67A3.39,3.39,0,0,0,24.85,36a5.52,5.52,0,0,0,1.37-1.15,6.39,6.39,0,0,0,1-1.5V26.14c-1.35.71-2.47,1.32-3.37,1.83a13.73,13.73,0,0,0-2.12,1.44A4,4,0,0,0,20.6,31,5.53,5.53,0,0,0,20.25,33a3.28,3.28,0,0,0,.92,2.7A3.09,3.09,0,0,0,23.14,36.44Z"/><path class="d" d="M38.34,38.11a5.22,5.22,0,0,1-4.1-1.69,7.45,7.45,0,0,1-1.75-4.58l1.71-.49a6.78,6.78,0,0,0,1.27,4,3.73,3.73,0,0,0,3,1.23A3.46,3.46,0,0,0,41,35.66,3.6,3.6,0,0,0,41.91,33a4.72,4.72,0,0,0-.78-2.45,11.25,11.25,0,0,0-2.45-2.68l-2.54-2.16a11.56,11.56,0,0,1-2.4-2.68A5.64,5.64,0,0,1,33,20.14a4.82,4.82,0,0,1,.63-2.55A4.1,4.1,0,0,1,35.36,16a5.78,5.78,0,0,1,2.6-.55A4.41,4.41,0,0,1,41.65,17a7,7,0,0,1,1.29,4.18l-1.48.46A7.7,7.7,0,0,0,41,18.92a3.09,3.09,0,0,0-1.18-1.48A3.24,3.24,0,0,0,38.08,17a3.49,3.49,0,0,0-2.34.74,2.65,2.65,0,0,0-.89,2.18A4.38,4.38,0,0,0,35.32,22a8.33,8.33,0,0,0,1.77,2.07l2.62,2.32a24.57,24.57,0,0,1,1.9,1.79,8.44,8.44,0,0,1,1.5,2.11,6,6,0,0,1,.59,2.75A5.2,5.2,0,0,1,43,35.78a4.51,4.51,0,0,1-1.86,1.73A6.25,6.25,0,0,1,38.34,38.11Z"/><path class="d" d="M46.89,37.77V7h2V18.13a8.47,8.47,0,0,1,2.39-1.94,5.91,5.91,0,0,1,2.85-.72,3.3,3.3,0,0,1,1.77.47,3.17,3.17,0,0,1,1.23,1.52,7,7,0,0,1,.46,2.79V37.77h-2V20.48A4.45,4.45,0,0,0,55,17.75,2.1,2.1,0,0,0,53.27,17a4.48,4.48,0,0,0-2.24.67,8.5,8.5,0,0,0-2.12,1.77V37.77Z"/><path class="d" d="M67.83,38.11a4,4,0,0,1-2.41-.72A8.72,8.72,0,0,1,63.8,36v1.82h-2V7h2V17.67a7.14,7.14,0,0,1,1.65-1.5,4.51,4.51,0,0,1,2.57-.7,4.59,4.59,0,0,1,2.49.62A4.27,4.27,0,0,1,72,17.92a9.68,9.68,0,0,1,.76,2.87A29.92,29.92,0,0,1,73,24.51v4.22a23.61,23.61,0,0,1-.48,5.17,6.1,6.1,0,0,1-1.59,3.15A4.32,4.32,0,0,1,67.83,38.11Zm-.27-1.55a2.71,2.71,0,0,0,2.13-.82,5,5,0,0,0,1-2.55A29.25,29.25,0,0,0,71,28.8V24.51a30.75,30.75,0,0,0-.25-4.28,4.65,4.65,0,0,0-1-2.43A2.76,2.76,0,0,0,67.6,17a3.7,3.7,0,0,0-2.2.71,11.14,11.14,0,0,0-1.6,1.35v15.5A6.9,6.9,0,0,0,65.42,36,4,4,0,0,0,67.56,36.56Z"/><path class="d" d="M82,38.11a5.25,5.25,0,0,1-3.36-1,5,5,0,0,1-1.67-2.81,18.71,18.71,0,0,1-.48-4.6V23.83a18.71,18.71,0,0,1,.48-4.6,5,5,0,0,1,1.67-2.81,5.25,5.25,0,0,1,3.36-1,5.34,5.34,0,0,1,3.41,1A5.07,5.07,0,0,1,87,19.21a19.27,19.27,0,0,1,.47,4.62v5.92a19.26,19.26,0,0,1-.47,4.6,5.09,5.09,0,0,1-1.67,2.81A5.34,5.34,0,0,1,82,38.11Zm0-1.52a3.1,3.1,0,0,0,2.36-.81,4.2,4.2,0,0,0,1-2.34,26.8,26.8,0,0,0,.21-3.61V23.75a26.71,26.71,0,0,0-.21-3.63,4.16,4.16,0,0,0-1-2.32A3.1,3.1,0,0,0,82,17a3,3,0,0,0-2.33.81,4.23,4.23,0,0,0-.95,2.32,26.71,26.71,0,0,0-.21,3.63v6.08a26.8,26.8,0,0,0,.21,3.61,4.26,4.26,0,0,0,.95,2.34A3,3,0,0,0,82,36.59Z"/><path class="d" d="M95.11,38.11a4.41,4.41,0,0,1-2.32-.6,4.17,4.17,0,0,1-1.53-1.69,5.43,5.43,0,0,1-.56-2.49,7.59,7.59,0,0,1,.36-2.46,5.08,5.08,0,0,1,1.32-1.95A13.86,13.86,0,0,1,95.09,27q1.77-1,4.58-2.34V23.1a18.85,18.85,0,0,0-.28-3.72,3.14,3.14,0,0,0-1-1.86A2.81,2.81,0,0,0,96.63,17a4.7,4.7,0,0,0-1.67.3,2.56,2.56,0,0,0-1.31,1.2,5.41,5.41,0,0,0-.51,2.64v.57h-2A7.24,7.24,0,0,1,92.43,17c.85-1,2.28-1.54,4.28-1.54a4.21,4.21,0,0,1,3.87,1.74q1.11,1.75,1.11,5.67V33.93c0,.21,0,.59,0,1.16s0,1.12,0,1.66a10,10,0,0,0,.06,1h-1.75c0-.53-.11-1.09-.19-1.67s-.13-1-.15-1.25A5.09,5.09,0,0,1,98,37.16,4.51,4.51,0,0,1,95.11,38.11Zm.5-1.67A3.39,3.39,0,0,0,97.32,36a5.48,5.48,0,0,0,1.36-1.15,6.1,6.1,0,0,0,1-1.5V26.14q-2,1.07-3.36,1.83a13.4,13.4,0,0,0-2.13,1.44A4.09,4.09,0,0,0,93.06,31,5.54,5.54,0,0,0,92.72,33a3.28,3.28,0,0,0,.91,2.7A3.14,3.14,0,0,0,95.61,36.44Z"/><path class="d" d="M106.09,37.77v-22h2v3a6.35,6.35,0,0,1,2.45-2.41,5.86,5.86,0,0,1,2.75-.78h.18a.51.51,0,0,1,.2,0v2.09a1.23,1.23,0,0,0-.39-.1l-.44,0a5.2,5.2,0,0,0-2.72.73,6,6,0,0,0-2,2.09V37.77Z"/><path class="d" d="M121.18,38.11a4.14,4.14,0,0,1-4-2.18c-.77-1.46-1.16-3.84-1.16-7.16V24.85a26.81,26.81,0,0,1,.42-5.19A5.87,5.87,0,0,1,118,16.53a4.31,4.31,0,0,1,3.12-1.06,4.45,4.45,0,0,1,2.39.62,6.49,6.49,0,0,1,1.6,1.39V7h2V37.77h-2V36.1a7.49,7.49,0,0,1-1.58,1.37A4.05,4.05,0,0,1,121.18,38.11Zm.27-1.55a3.82,3.82,0,0,0,2-.57,6.82,6.82,0,0,0,1.58-1.3V18.92a12,12,0,0,0-1.54-1.25,3.63,3.63,0,0,0-2.11-.65,2.63,2.63,0,0,0-2.74,1.75,17.58,17.58,0,0,0-.64,5.59v4.56a27.18,27.18,0,0,0,.28,4.35,4.72,4.72,0,0,0,1,2.49A2.73,2.73,0,0,0,121.45,36.56Z"/></g></svg>