<svg xmlns="http://www.w3.org/2000/svg" viewBox="0 0 130.11 51.99"><defs><style>.a{isolation:isolate;}.b{fill:#fff;}.c,.d{fill:none;stroke-width:3px;}.c{stroke:#fff;}.d{stroke:#ec2726;}</style></defs><title>sign-in-outline</title><g class="a"><g class="a"><path class="b" d="M7.41,35.37a7.42,7.42,0,0,1-4-1A6.18,6.18,0,0,1,1,31.61a12.4,12.4,0,0,1-1-4.22l1.79-.57A17.7,17.7,0,0,0,2.6,30.4a5.05,5.05,0,0,0,1.69,2.41,5.16,5.16,0,0,0,3.16.85A5.28,5.28,0,0,0,11,32.52a4.81,4.81,0,0,0,1.31-3.8,6.53,6.53,0,0,0-1-3.63,20.65,20.65,0,0,0-2.94-3.47L2.74,16A10,10,0,0,1,.68,13.14a7.18,7.18,0,0,1-.64-3A5.86,5.86,0,0,1,1.92,5.51,7.17,7.17,0,0,1,6.8,3.87a9.08,9.08,0,0,1,2.81.4A5.63,5.63,0,0,1,11.8,5.56a6.05,6.05,0,0,1,1.46,2.38A13.86,13.86,0,0,1,14,11.58L12.2,12a12.31,12.31,0,0,0-.72-3.61A4.31,4.31,0,0,0,9.8,6.25a5.42,5.42,0,0,0-3-.71,5.65,5.65,0,0,0-3.5,1.07A4,4,0,0,0,1.94,10a5.85,5.85,0,0,0,.47,2.28A8.24,8.24,0,0,0,4.18,14.7l5.55,5.47a23.42,23.42,0,0,1,3.21,3.9,8.13,8.13,0,0,1,1.35,4.54,7.45,7.45,0,0,1-.88,3.82A5.33,5.33,0,0,1,11,34.65,8.43,8.43,0,0,1,7.41,35.37Z"/><path class="b" d="M18.05,10.14V6.65H20.1v3.49Zm0,24.85V13H20.1V35Z"/><path class="b" d="M30.44,42.44A15.5,15.5,0,0,1,26.56,42a4.94,4.94,0,0,1-2.41-1.29,3,3,0,0,1-.82-2.16,4,4,0,0,1,.59-2.11,7.44,7.44,0,0,1,1.48-1.75,9,9,0,0,1,1.85-1.27,5.25,5.25,0,0,1-2-.94,1.86,1.86,0,0,1-.62-1.5,3.07,3.07,0,0,1,.76-2,15.18,15.18,0,0,1,2-2,6.06,6.06,0,0,1-2.26-3,11.46,11.46,0,0,1-.63-3.84,10.26,10.26,0,0,1,.63-3.55,6.63,6.63,0,0,1,2-2.87,5.25,5.25,0,0,1,3.51-1.14,4.85,4.85,0,0,1,3.14.91,7.19,7.19,0,0,1,1.73,2,5.72,5.72,0,0,1,1.21-1.5A4.77,4.77,0,0,1,38.38,13l.53-.19.57,1.52a6,6,0,0,0-1.33.49,8.24,8.24,0,0,0-1.25.78,4.94,4.94,0,0,0-.95.93,9.38,9.38,0,0,1,.51,1.88,11,11,0,0,1,.21,1.85,11.71,11.71,0,0,1-.61,3.91A5.79,5.79,0,0,1,34.12,27a5.57,5.57,0,0,1-3.49,1,8.3,8.3,0,0,1-1.28-.11,7,7,0,0,1-1.08-.27,17,17,0,0,0-1.33,1.5,2.51,2.51,0,0,0-.61,1.5,1.06,1.06,0,0,0,.44.92,3.91,3.91,0,0,0,1.39.49l3.57.64A10.19,10.19,0,0,1,36,34.31a3.84,3.84,0,0,1,1.54,3.27,4,4,0,0,1-1,2.79A5.71,5.71,0,0,1,33.93,42,11.73,11.73,0,0,1,30.44,42.44Zm0-1.63a8.72,8.72,0,0,0,3.8-.76,2.54,2.54,0,0,0,1.56-2.43,2.92,2.92,0,0,0-.37-1.45A3,3,0,0,0,34.05,35,11.77,11.77,0,0,0,31,34.2l-2.39-.42a14.62,14.62,0,0,0-1.47,1,6.83,6.83,0,0,0-1.42,1.42,3,3,0,0,0-.61,1.88,2.17,2.17,0,0,0,1.39,2.09A9.64,9.64,0,0,0,30.44,40.81Zm.19-14.29a3.65,3.65,0,0,0,2.24-.63,3.9,3.9,0,0,0,1.25-1.59,7.46,7.46,0,0,0,.55-2.06,16.15,16.15,0,0,0,.14-2,12.5,12.5,0,0,0-.17-1.92,7.76,7.76,0,0,0-.63-2,4.1,4.1,0,0,0-1.27-1.55,3.49,3.49,0,0,0-2.15-.61,3.4,3.4,0,0,0-2.17.65,4.57,4.57,0,0,0-1.31,1.63,7.58,7.58,0,0,0-.64,2,10.47,10.47,0,0,0-.17,1.79,14.56,14.56,0,0,0,.15,2,7.15,7.15,0,0,0,.61,2.07,4,4,0,0,0,1.31,1.61A3.71,3.71,0,0,0,30.63,26.52Z"/><path class="b" d="M41.23,35V13h2v2.35a8.42,8.42,0,0,1,2.36-2,5.69,5.69,0,0,1,2.85-.74,3.39,3.39,0,0,1,1.77.47,3.28,3.28,0,0,1,1.23,1.52,7.2,7.2,0,0,1,.46,2.8V35h-2V17.7A4.37,4.37,0,0,0,49.27,15a2.15,2.15,0,0,0-1.7-.72,4.37,4.37,0,0,0-2.22.66,8.83,8.83,0,0,0-2.11,1.77V35Z"/><path class="b" d="M64,35V4.21H66V35Z"/><path class="b" d="M71.1,35V13h2v2.35a8.28,8.28,0,0,1,2.36-2,5.66,5.66,0,0,1,2.85-.74,3.38,3.38,0,0,1,1.76.47,3.3,3.3,0,0,1,1.24,1.52,7.21,7.21,0,0,1,.45,2.8V35h-2V17.7A4.29,4.29,0,0,0,79.13,15a2.11,2.11,0,0,0-1.69-.72,4.37,4.37,0,0,0-2.22.66,8.83,8.83,0,0,0-2.11,1.77V35Z"/></g></g><line class="c" x1="107.11" y1="0.99" x2="128.99" y2="25.74"/><line class="c" x1="107.11" y1="48.49" x2="128.99" y2="23.74"/><line class="d" x1="58.61" y1="50.49" x2="12.61" y2="50.49"/></svg>