<svg xmlns="http://www.w3.org/2000/svg" viewBox="0 0 151.04 57.07"><defs><style>.a{isolation:isolate;}.b{fill:#dfdfdf;}.c{fill:none;stroke:#ec2726;}</style></defs><title>header-content-outline-1pt</title><g class="a"><g class="a"><path class="b" d="M8,33.85a8,8,0,0,1-4.31-1.06,6.75,6.75,0,0,1-2.57-3A13.58,13.58,0,0,1,0,25.28l1.92-.62A18.43,18.43,0,0,0,2.8,28.5a5.34,5.34,0,0,0,1.81,2.59A5.5,5.5,0,0,0,8,32a5.71,5.71,0,0,0,3.86-1.22,5.17,5.17,0,0,0,1.41-4.08,7,7,0,0,0-1.12-3.9A22.47,22.47,0,0,0,9,19.07l-6-6A10.82,10.82,0,0,1,.74,10,7.58,7.58,0,0,1,0,6.78a6.28,6.28,0,0,1,2-5A7.68,7.68,0,0,1,7.31,0a9.79,9.79,0,0,1,3,.43,5.9,5.9,0,0,1,2.35,1.39,6.47,6.47,0,0,1,1.57,2.55A14.86,14.86,0,0,1,15,8.29l-1.88.45a13.14,13.14,0,0,0-.78-3.88,4.68,4.68,0,0,0-1.8-2.31A5.87,5.87,0,0,0,7.35,1.8,6.07,6.07,0,0,0,3.59,2.94,4.33,4.33,0,0,0,2.08,6.61a6.08,6.08,0,0,0,.51,2.45,8.88,8.88,0,0,0,1.9,2.58l6,5.88A24.09,24.09,0,0,1,13.9,21.7a8.75,8.75,0,0,1,1.45,4.88,8.07,8.07,0,0,1-.94,4.11,5.76,5.76,0,0,1-2.61,2.39A9.17,9.17,0,0,1,8,33.85Z"/><path class="b" d="M28.34,33.69A3.83,3.83,0,0,1,25.89,33a2.94,2.94,0,0,1-1.06-1.75,11.16,11.16,0,0,1-.25-2.49V11.27h-3.1V9.84h3.1V2.29h2.17V9.84h4v1.43h-4V28.5a7.09,7.09,0,0,0,.36,2.7c.25.51.81.77,1.68.77a7.1,7.1,0,0,0,.88-.06l.87-.14v1.67a9.23,9.23,0,0,1-1.1.19C29,33.67,28.66,33.69,28.34,33.69Z"/><path class="b" d="M43.53,33.81a6.43,6.43,0,0,1-3.23-.76,4.82,4.82,0,0,1-2.06-2.73,17.13,17.13,0,0,1-.72-5.62V18.42a16.56,16.56,0,0,1,.74-5.64,4.57,4.57,0,0,1,2.1-2.61,7,7,0,0,1,3.21-.7,5.76,5.76,0,0,1,3.47.94,5.26,5.26,0,0,1,1.8,3,22.92,22.92,0,0,1,.53,5.46v2.24H39.69v3.76a19.43,19.43,0,0,0,.39,4.41,3.85,3.85,0,0,0,1.24,2.24,3.52,3.52,0,0,0,2.21.66,5.39,5.39,0,0,0,1.71-.29,2.61,2.61,0,0,0,1.43-1.35,7.26,7.26,0,0,0,.57-3.3V25.48h2.13V27a8.7,8.7,0,0,1-1.25,4.9Q46.88,33.81,43.53,33.81Zm-3.84-14h7.55V18A25.66,25.66,0,0,0,47,14.31a4.31,4.31,0,0,0-1-2.37,3.24,3.24,0,0,0-2.45-.83,4,4,0,0,0-2.19.55,3.34,3.34,0,0,0-1.28,2A16.9,16.9,0,0,0,39.69,18Z"/><path class="b" d="M61.49,33.81A4.71,4.71,0,0,1,59,33.16a4.48,4.48,0,0,1-1.65-1.82,5.89,5.89,0,0,1-.59-2.67A8.07,8.07,0,0,1,57.15,26a5.2,5.2,0,0,1,1.4-2.1,14.8,14.8,0,0,1,2.92-2.06q1.91-1.08,4.93-2.52V17.68a20.44,20.44,0,0,0-.31-4,3.46,3.46,0,0,0-1-2,3,3,0,0,0-1.94-.57,5.17,5.17,0,0,0-1.8.32,2.81,2.81,0,0,0-1.41,1.29,5.92,5.92,0,0,0-.55,2.84v.61H57.25a7.74,7.74,0,0,1,1.37-5Q60,9.47,63.21,9.47c2,0,3.37.63,4.16,1.88s1.19,3.28,1.19,6.09V29.32c0,.22,0,.63,0,1.24s0,1.21,0,1.78a8.83,8.83,0,0,0,.06,1.1H66.8c0-.57-.12-1.17-.2-1.79s-.14-1.08-.16-1.35a5.54,5.54,0,0,1-1.84,2.49A4.91,4.91,0,0,1,61.49,33.81ZM62,32a3.51,3.51,0,0,0,1.83-.47,5.5,5.5,0,0,0,1.47-1.22,7.27,7.27,0,0,0,1.07-1.61V21c-1.45.76-2.65,1.41-3.62,2a13.43,13.43,0,0,0-2.29,1.55,4.37,4.37,0,0,0-1.2,1.65,6,6,0,0,0-.37,2.23,3.56,3.56,0,0,0,1,2.9A3.4,3.4,0,0,0,62,32Z"/><path class="b" d="M77.5,33.44V.37h2.17V33.44Z"/><path class="b" d="M94,33.69A3.83,3.83,0,0,1,91.51,33a3,3,0,0,1-1.07-1.75,11.82,11.82,0,0,1-.24-2.49V11.27H87.1V9.84h3.1V2.29h2.16V9.84h4v1.43h-4V28.5a7,7,0,0,0,.37,2.7c.25.51.8.77,1.68.77a6.82,6.82,0,0,0,.87-.06c.32,0,.61-.09.88-.14v1.67a9.6,9.6,0,0,1-1.1.19C94.65,33.67,94.28,33.69,94,33.69Z"/><path class="b" d="M103.59,33.44V.37h2.17v12a9.38,9.38,0,0,1,2.57-2.08,6.27,6.27,0,0,1,3.06-.78,3.58,3.58,0,0,1,1.9.51,3.47,3.47,0,0,1,1.33,1.64,7.75,7.75,0,0,1,.49,3V33.44H112.9V14.86a4.75,4.75,0,0,0-.65-2.94,2.26,2.26,0,0,0-1.8-.77,4.83,4.83,0,0,0-2.41.71,9.57,9.57,0,0,0-2.28,1.9V33.44Z"/><path class="b" d="M133.77,33.44,141,16.29,133.81.37h2l6.49,14.13L148.67.37h2.21l-7.56,16.25L151,33.44h-2.16l-6.82-14.86L136,33.44Z"/></g></g><g class="a"><g class="a"><path class="b" d="M35.92,49.46V42H34.35V41.6H38V42H36.44v7.43Z"/><path class="b" d="M39.69,49.46V41.6h.52v2.84a2.2,2.2,0,0,1,.61-.49,1.51,1.51,0,0,1,.72-.18.9.9,0,0,1,.46.12.85.85,0,0,1,.31.38,1.8,1.8,0,0,1,.12.72v4.47H41.9V45.05a1.15,1.15,0,0,0-.15-.7.53.53,0,0,0-.43-.19,1.14,1.14,0,0,0-.57.17,2.31,2.31,0,0,0-.54.45v4.68Z"/><path class="b" d="M45.78,49.55a1.53,1.53,0,0,1-.76-.18,1.12,1.12,0,0,1-.49-.65,4,4,0,0,1-.17-1.34V45.89a4.15,4.15,0,0,1,.17-1.34,1.1,1.1,0,0,1,.5-.62,1.67,1.67,0,0,1,.76-.16,1.36,1.36,0,0,1,.83.22,1.22,1.22,0,0,1,.42.71,5.1,5.1,0,0,1,.13,1.3v.53h-2.3v.89a4.74,4.74,0,0,0,.09,1,.88.88,0,0,0,.3.53.81.81,0,0,0,.52.16,1.18,1.18,0,0,0,.41-.07.58.58,0,0,0,.34-.32,1.72,1.72,0,0,0,.14-.78v-.42h.5v.37a2,2,0,0,1-.3,1.16A1.2,1.2,0,0,1,45.78,49.55Zm-.91-3.33h1.8v-.44a5.34,5.34,0,0,0-.06-.86,1,1,0,0,0-.23-.57.79.79,0,0,0-.59-.2,1.05,1.05,0,0,0-.52.13.81.81,0,0,0-.3.49,3.87,3.87,0,0,0-.1,1Z"/><path class="b" d="M52.08,49.46V41.6h.53v3.54h2.76V41.6h.52v7.86h-.52V45.55H52.61v3.91Z"/><path class="b" d="M59.08,49.55a1.07,1.07,0,0,1-.59-.16A1,1,0,0,1,58.1,49a1.42,1.42,0,0,1-.14-.63,2,2,0,0,1,.09-.63,1.15,1.15,0,0,1,.34-.5,3.25,3.25,0,0,1,.69-.49q.45-.26,1.17-.6v-.39a5.73,5.73,0,0,0-.07-1,.78.78,0,0,0-.25-.47.7.7,0,0,0-.46-.14,1.26,1.26,0,0,0-.43.08.65.65,0,0,0-.33.31,1.32,1.32,0,0,0-.13.67v.15h-.51a1.83,1.83,0,0,1,.33-1.2,1.35,1.35,0,0,1,1.09-.39,1.07,1.07,0,0,1,1,.44,2.8,2.8,0,0,1,.28,1.45v2.82c0,.05,0,.15,0,.3s0,.28,0,.42a1.57,1.57,0,0,0,0,.26h-.45c0-.14,0-.28,0-.43s0-.25,0-.32a1.28,1.28,0,0,1-.44.59A1.12,1.12,0,0,1,59.08,49.55Zm.13-.43a.93.93,0,0,0,.44-.11,1.59,1.59,0,0,0,.35-.29,2,2,0,0,0,.25-.39V46.49c-.35.18-.63.34-.86.47a2.94,2.94,0,0,0-.54.37.91.91,0,0,0-.29.39,1.36,1.36,0,0,0-.09.53.85.85,0,0,0,.24.69A.79.79,0,0,0,59.21,49.12Z"/><path class="b" d="M64.1,49.55a1.27,1.27,0,0,1-.93-.3,1.53,1.53,0,0,1-.4-.79,6.23,6.23,0,0,1-.09-1.11V46a5.31,5.31,0,0,1,.13-1.33,1.23,1.23,0,0,1,.43-.72,1.46,1.46,0,0,1,.86-.22A1.38,1.38,0,0,1,65,44a1.23,1.23,0,0,1,.39.65,4.42,4.42,0,0,1,.1.93v.22H65v-.22a3.34,3.34,0,0,0-.09-.88.77.77,0,0,0-.29-.43,1,1,0,0,0-.5-.12.81.81,0,0,0-.57.18,1,1,0,0,0-.27.58A7.55,7.55,0,0,0,63.2,46v1.45a3.5,3.5,0,0,0,.18,1.32.72.72,0,0,0,.73.41.86.86,0,0,0,.57-.17.87.87,0,0,0,.24-.51,5.45,5.45,0,0,0,.06-.9v-.22h.49v.21a5.2,5.2,0,0,1-.09,1,1.29,1.29,0,0,1-.38.71A1.32,1.32,0,0,1,64.1,49.55Z"/><path class="b" d="M67.4,49.46V41.6h.51v5.18L70,43.85h.55L69.07,46l1.4,3.46H70l-1.26-3.15-.78,1v2.11Z"/><path class="b" d="M73.4,49.55a1.5,1.5,0,0,1-.76-.18,1.12,1.12,0,0,1-.49-.65A4,4,0,0,1,72,47.38V45.89a3.89,3.89,0,0,1,.17-1.34,1.1,1.1,0,0,1,.5-.62,1.67,1.67,0,0,1,.76-.16,1.36,1.36,0,0,1,.83.22,1.22,1.22,0,0,1,.42.71,5.1,5.1,0,0,1,.13,1.3v.53h-2.3v.89a4.74,4.74,0,0,0,.09,1,.88.88,0,0,0,.3.53.79.79,0,0,0,.52.16,1.18,1.18,0,0,0,.41-.07.61.61,0,0,0,.34-.32,1.74,1.74,0,0,0,.13-.78v-.42h.51v.37a2,2,0,0,1-.3,1.16A1.2,1.2,0,0,1,73.4,49.55Zm-.91-3.33h1.79v-.44a5.45,5.45,0,0,0,0-.86,1,1,0,0,0-.24-.57.75.75,0,0,0-.58-.2,1,1,0,0,0-.52.13.77.77,0,0,0-.3.49,3.87,3.87,0,0,0-.1,1Z"/><path class="b" d="M76.8,49.46V43.85h.51v.76a1.7,1.7,0,0,1,.63-.62,1.53,1.53,0,0,1,.7-.2h.1v.54l-.1,0h-.12a1.31,1.31,0,0,0-.69.18,1.59,1.59,0,0,0-.52.54v4.43Z"/><path class="b" d="M81.72,49.55a1.36,1.36,0,0,1-1-.43A1.93,1.93,0,0,1,80.22,48l.44-.13a1.73,1.73,0,0,0,.32,1,1,1,0,0,0,.75.32.86.86,0,0,0,.66-.24.9.9,0,0,0,.24-.67,1.25,1.25,0,0,0-.2-.63,2.94,2.94,0,0,0-.63-.68l-.65-.56a2.65,2.65,0,0,1-.61-.68,1.41,1.41,0,0,1-.19-.74,1.18,1.18,0,0,1,.16-.65,1,1,0,0,1,.44-.4,1.44,1.44,0,0,1,.67-.14,1.13,1.13,0,0,1,.94.39,1.75,1.75,0,0,1,.33,1.07l-.38.12a2.1,2.1,0,0,0-.12-.7.85.85,0,0,0-.3-.38.83.83,0,0,0-.44-.12.94.94,0,0,0-.6.19.71.71,0,0,0-.23.56,1.13,1.13,0,0,0,.12.54,2.39,2.39,0,0,0,.45.53l.67.59a5.25,5.25,0,0,1,.49.46,2.45,2.45,0,0,1,.38.53,1.58,1.58,0,0,1,.15.71,1.26,1.26,0,0,1-.17.69,1.11,1.11,0,0,1-.47.44A1.53,1.53,0,0,1,81.72,49.55Z"/><path class="b" d="M87.2,49.9v-.42a3,3,0,0,0,.68-.06.67.67,0,0,0,.37-.21.89.89,0,0,0,.15-.45,5.17,5.17,0,0,0,0-.76V41.6H89v6.46a4.3,4.3,0,0,1-.1,1,.91.91,0,0,1-.41.6,1.94,1.94,0,0,1-1,.2Z"/><path class="b" d="M92.51,49.55a1.32,1.32,0,0,1-.86-.25,1.29,1.29,0,0,1-.42-.71,4.42,4.42,0,0,1-.13-1.18V45.9a4.29,4.29,0,0,1,.13-1.17,1.29,1.29,0,0,1,.42-.72,1.68,1.68,0,0,1,1.73,0,1.3,1.3,0,0,1,.43.71,4.93,4.93,0,0,1,.12,1.18v1.51a4.93,4.93,0,0,1-.12,1.18,1.19,1.19,0,0,1-1.3,1Zm0-.39a.78.78,0,0,0,.6-.21,1.11,1.11,0,0,0,.25-.6,6.12,6.12,0,0,0,0-.92V45.88a6.35,6.35,0,0,0,0-.93,1.11,1.11,0,0,0-.25-.59.78.78,0,0,0-.6-.21.74.74,0,0,0-.59.21,1.11,1.11,0,0,0-.25.59,8.14,8.14,0,0,0,0,.93v1.55a7.82,7.82,0,0,0,0,.92,1.11,1.11,0,0,0,.25.6A.74.74,0,0,0,92.51,49.16Z"/><path class="b" d="M96.73,49.55a.84.84,0,0,1-.45-.12A.78.78,0,0,1,96,49a1.78,1.78,0,0,1-.12-.71V43.85h.51v4.42a1.12,1.12,0,0,0,.16.69.53.53,0,0,0,.43.19,1.12,1.12,0,0,0,.61-.19,2.52,2.52,0,0,0,.55-.49V43.85h.5v5.61h-.5V48.8a2,2,0,0,1-.63.54A1.42,1.42,0,0,1,96.73,49.55Z"/><path class="b" d="M100.77,49.46V43.85h.51v.76a1.7,1.7,0,0,1,.63-.62,1.53,1.53,0,0,1,.7-.2h.1v.54l-.11,0h-.11a1.31,1.31,0,0,0-.69.18,1.59,1.59,0,0,0-.52.54v4.43Z"/><path class="b" d="M104.41,49.46V43.85h.52v.6a2,2,0,0,1,.6-.49,1.45,1.45,0,0,1,.73-.19.84.84,0,0,1,.45.12.79.79,0,0,1,.31.38,1.8,1.8,0,0,1,.12.72v4.47h-.51V45.05a1.13,1.13,0,0,0-.16-.7.53.53,0,0,0-.44-.19,1.13,1.13,0,0,0-.56.17,2.81,2.81,0,0,0-.54.45v4.68Z"/><path class="b" d="M110.5,49.55a1.54,1.54,0,0,1-.77-.18,1.17,1.17,0,0,1-.49-.65,4.24,4.24,0,0,1-.17-1.34V45.89a3.85,3.85,0,0,1,.18-1.34,1.07,1.07,0,0,1,.5-.62,1.64,1.64,0,0,1,.76-.16,1.33,1.33,0,0,1,.82.22,1.29,1.29,0,0,1,.43.71,5.68,5.68,0,0,1,.12,1.3v.53h-2.29v.89a4.74,4.74,0,0,0,.09,1A.92.92,0,0,0,110,49a.82.82,0,0,0,.53.16,1.12,1.12,0,0,0,.4-.07.58.58,0,0,0,.34-.32,1.72,1.72,0,0,0,.14-.78v-.42h.5v.37a2,2,0,0,1-.29,1.16A1.21,1.21,0,0,1,110.5,49.55Zm-.91-3.33h1.79v-.44a7,7,0,0,0,0-.86,1.11,1.11,0,0,0-.24-.57.77.77,0,0,0-.58-.2,1,1,0,0,0-.52.13.82.82,0,0,0-.31.49,4.44,4.44,0,0,0-.09,1Z"/><path class="b" d="M113.63,50.86v-.42a2.64,2.64,0,0,0,.81-.09.56.56,0,0,0,.33-.25.77.77,0,0,0,.07-.34,1.6,1.6,0,0,0,0-.42c0-.14-.06-.3-.1-.45l-1.19-5H114l1.1,5.12,1.07-5.12h.52l-1.37,6.07a1.15,1.15,0,0,1-.25.52,1,1,0,0,1-.48.31,2.31,2.31,0,0,1-.76.11Z"/></g></g><line class="c" x1="48.22" y1="56.57" x2="102.82" y2="56.57"/></svg>