<svg xmlns="http://www.w3.org/2000/svg" viewBox="0 0 206.33 115.9"><defs><style>.a{fill:#231f20;opacity:0.7;}.a,.d{stroke:#ec2726;stroke-miterlimit:10;}.b{isolation:isolate;}.c{fill:#dfdfdf;}.d{fill:none;}.e{fill:#ec2726;}</style></defs><title>proceed_2</title><rect class="a" x="0.5" y="0.5" width="205.33" height="114.9"/><g class="b"><g class="b"><path class="c" d="M66.9,64.63V43.35h5a5.33,5.33,0,0,1,3,.72,3.79,3.79,0,0,1,1.51,2,8.84,8.84,0,0,1,0,5.51,4.33,4.33,0,0,1-1.51,2.11,4.85,4.85,0,0,1-3,.81H68.32V64.63Zm1.42-11.27H71.6a4.37,4.37,0,0,0,2.11-.45A2.75,2.75,0,0,0,75,51.48a7.09,7.09,0,0,0,.41-2.64A7.83,7.83,0,0,0,75,46.17a2.35,2.35,0,0,0-1.18-1.34,5.32,5.32,0,0,0-2.19-.38h-3.3Z"/><path class="c" d="M80.66,64.63V49.44h1.39v2.05a4.45,4.45,0,0,1,1.7-1.67,4.05,4.05,0,0,1,1.9-.54h.12l.14,0v1.45a.67.67,0,0,0-.27-.07h-.3a3.5,3.5,0,0,0-1.88.5,4.23,4.23,0,0,0-1.41,1.44v12Z"/><path class="c" d="M92.64,64.86a3.73,3.73,0,0,1-2.33-.65,3.51,3.51,0,0,1-1.15-1.95,13,13,0,0,1-.33-3.18V55a12.93,12.93,0,0,1,.33-3.18,3.51,3.51,0,0,1,1.15-2,4.54,4.54,0,0,1,4.68,0,3.5,3.5,0,0,1,1.16,1.93,13.62,13.62,0,0,1,.32,3.2v4.09a13.62,13.62,0,0,1-.32,3.18A3.52,3.52,0,0,1,95,64.21,3.75,3.75,0,0,1,92.64,64.86Zm0-1a2.16,2.16,0,0,0,1.63-.56,3,3,0,0,0,.67-1.62,19.75,19.75,0,0,0,.14-2.49V54.93a19.86,19.86,0,0,0-.14-2.51,2.91,2.91,0,0,0-.67-1.6,2.12,2.12,0,0,0-1.63-.56,2.08,2.08,0,0,0-1.62.56,2.9,2.9,0,0,0-.65,1.6,18,18,0,0,0-.15,2.51v4.21a17.88,17.88,0,0,0,.15,2.49A2.94,2.94,0,0,0,91,63.25,2.12,2.12,0,0,0,92.64,63.81Z"/><path class="c" d="M104,64.86a3.44,3.44,0,0,1-2.52-.8,3.9,3.9,0,0,1-1.07-2.14,17,17,0,0,1-.25-3V55.35a14.91,14.91,0,0,1,.35-3.58,3.26,3.26,0,0,1,1.18-2,3.91,3.91,0,0,1,2.31-.6,3.75,3.75,0,0,1,2.38.64,3.09,3.09,0,0,1,1.06,1.76,10.7,10.7,0,0,1,.26,2.51v.6h-1.31v-.6a8.57,8.57,0,0,0-.25-2.38,1.93,1.93,0,0,0-.77-1.15,2.57,2.57,0,0,0-1.37-.33,2.23,2.23,0,0,0-1.55.48,2.71,2.71,0,0,0-.71,1.57,18.2,18.2,0,0,0-.18,2.88v4a9.67,9.67,0,0,0,.48,3.57,2,2,0,0,0,2,1.1,2.25,2.25,0,0,0,1.53-.45,2.23,2.23,0,0,0,.67-1.39,14.72,14.72,0,0,0,.16-2.44V59h1.31v.55a15.08,15.08,0,0,1-.23,2.74,3.34,3.34,0,0,1-1,1.91A3.52,3.52,0,0,1,104,64.86Z"/><path class="c" d="M115.23,64.86a4.23,4.23,0,0,1-2.08-.48,3.13,3.13,0,0,1-1.32-1.76,11,11,0,0,1-.46-3.62V55a10.87,10.87,0,0,1,.47-3.63,3,3,0,0,1,1.35-1.68,4.64,4.64,0,0,1,2.07-.44,3.69,3.69,0,0,1,2.23.6,3.31,3.31,0,0,1,1.15,1.93,14.39,14.39,0,0,1,.35,3.51v1.44h-6.23v2.42A12.43,12.43,0,0,0,113,62a2.49,2.49,0,0,0,.8,1.44,2.28,2.28,0,0,0,1.42.42,3.47,3.47,0,0,0,1.1-.18,1.64,1.64,0,0,0,.92-.87,4.59,4.59,0,0,0,.37-2.13V59.5H119v1a5.53,5.53,0,0,1-.81,3.15A3.26,3.26,0,0,1,115.23,64.86Zm-2.47-9h4.86V54.67a17.56,17.56,0,0,0-.14-2.35,2.77,2.77,0,0,0-.65-1.52,2,2,0,0,0-1.57-.54,2.59,2.59,0,0,0-1.41.35,2.17,2.17,0,0,0-.83,1.31,11.47,11.47,0,0,0-.26,2.78Z"/><path class="c" d="M126.5,64.86a4.23,4.23,0,0,1-2.08-.48,3.13,3.13,0,0,1-1.32-1.76,11,11,0,0,1-.46-3.62V55a10.61,10.61,0,0,1,.47-3.63,3,3,0,0,1,1.35-1.68,4.64,4.64,0,0,1,2.07-.44,3.71,3.71,0,0,1,2.23.6,3.31,3.31,0,0,1,1.15,1.93,14.39,14.39,0,0,1,.35,3.51v1.44H124v2.42a12.43,12.43,0,0,0,.25,2.84,2.49,2.49,0,0,0,.8,1.44,2.28,2.28,0,0,0,1.42.42,3.52,3.52,0,0,0,1.1-.18,1.64,1.64,0,0,0,.92-.87,4.59,4.59,0,0,0,.37-2.13V59.5h1.37v1a5.53,5.53,0,0,1-.81,3.15A3.27,3.27,0,0,1,126.5,64.86Zm-2.47-9h4.86V54.67a15.9,15.9,0,0,0-.15-2.35,2.7,2.7,0,0,0-.64-1.52,2,2,0,0,0-1.57-.54,2.57,2.57,0,0,0-1.41.35,2.17,2.17,0,0,0-.83,1.31A11.47,11.47,0,0,0,124,54.7Z"/><path class="c" d="M137.48,64.86a2.86,2.86,0,0,1-2.77-1.51,11.16,11.16,0,0,1-.8-5V55.69a17.94,17.94,0,0,1,.29-3.58,4,4,0,0,1,1.05-2.17,3,3,0,0,1,2.15-.73,3,3,0,0,1,1.65.43,4.42,4.42,0,0,1,1.11,1V43.35h1.39V64.63h-1.39V63.47a5.46,5.46,0,0,1-1.09,1A2.87,2.87,0,0,1,137.48,64.86Zm.18-1.08a2.67,2.67,0,0,0,1.41-.39,4.86,4.86,0,0,0,1.09-.89V51.6a8,8,0,0,0-1.07-.87,2.47,2.47,0,0,0-1.45-.45,1.81,1.81,0,0,0-1.89,1.21,12,12,0,0,0-.45,3.86v3.16a17.66,17.66,0,0,0,.2,3,3.28,3.28,0,0,0,.7,1.72A1.9,1.9,0,0,0,137.66,63.78Z"/></g></g><g class="b"><g class="b"><path class="c" d="M13.71,18.14V8h.68V17.6h3.08v.54Z"/><path class="c" d="M20.51,18.26a2.07,2.07,0,0,1-1-.23,1.51,1.51,0,0,1-.63-.85,5.19,5.19,0,0,1-.22-1.73V13.52a5.21,5.21,0,0,1,.22-1.74,1.41,1.41,0,0,1,.65-.8,2.19,2.19,0,0,1,1-.21,1.79,1.79,0,0,1,1.07.28,1.65,1.65,0,0,1,.55.93,6.9,6.9,0,0,1,.16,1.68v.69h-3V15.5a6,6,0,0,0,.12,1.36,1.15,1.15,0,0,0,.39.69,1,1,0,0,0,.67.2,1.59,1.59,0,0,0,.53-.08.78.78,0,0,0,.44-.42,2.21,2.21,0,0,0,.18-1v-.54h.65v.48a2.75,2.75,0,0,1-.38,1.51A1.58,1.58,0,0,1,20.51,18.26Zm-1.18-4.32h2.33v-.56a7.42,7.42,0,0,0-.07-1.13,1.33,1.33,0,0,0-.31-.72,1,1,0,0,0-.75-.26,1.21,1.21,0,0,0-.68.17,1,1,0,0,0-.39.63,5.37,5.37,0,0,0-.13,1.32Z"/><path class="c" d="M25.42,18.26a1.47,1.47,0,0,1-.77-.2,1.38,1.38,0,0,1-.51-.56,1.84,1.84,0,0,1-.18-.83,2.47,2.47,0,0,1,.12-.81,1.61,1.61,0,0,1,.43-.64,4.2,4.2,0,0,1,.9-.64c.39-.22.9-.48,1.52-.77v-.52a6.29,6.29,0,0,0-.1-1.23,1.1,1.1,0,0,0-.31-.62,1,1,0,0,0-.6-.17,1.45,1.45,0,0,0-.55.1.91.91,0,0,0-.44.39,1.85,1.85,0,0,0-.17.88v.19h-.65a2.42,2.42,0,0,1,.42-1.56,1.74,1.74,0,0,1,1.42-.5,1.41,1.41,0,0,1,1.28.57,3.71,3.71,0,0,1,.36,1.88v3.65c0,.07,0,.2,0,.39s0,.37,0,.54,0,.29,0,.34h-.58c0-.17,0-.36-.06-.55s0-.33,0-.41a1.69,1.69,0,0,1-.57.76A1.49,1.49,0,0,1,25.42,18.26Zm.16-.56a1.1,1.1,0,0,0,.57-.14,1.79,1.79,0,0,0,.45-.38,2.63,2.63,0,0,0,.33-.49V14.3c-.45.23-.82.43-1.12.6a4.64,4.64,0,0,0-.7.48,1.29,1.29,0,0,0-.37.51,1.73,1.73,0,0,0-.11.68,1.11,1.11,0,0,0,.3.9A1.07,1.07,0,0,0,25.58,17.7Z"/><path class="c" d="M29.68,18.14V10.88h.67v1a2,2,0,0,1,.81-.8,2,2,0,0,1,.91-.26h0l.07,0v.69a.23.23,0,0,0-.13,0h-.14a1.68,1.68,0,0,0-.9.24,1.93,1.93,0,0,0-.67.69v5.74Z"/><path class="c" d="M33.78,18.14V10.88h.66v.78a2.82,2.82,0,0,1,.78-.65,2,2,0,0,1,1-.24,1.14,1.14,0,0,1,.58.15,1.09,1.09,0,0,1,.41.5,2.41,2.41,0,0,1,.15.93v5.79h-.67V12.42a1.49,1.49,0,0,0-.2-.9.71.71,0,0,0-.56-.24,1.41,1.41,0,0,0-.74.22,3.13,3.13,0,0,0-.7.58v6.06Z"/><path class="c" d="M44.75,18.28A2.68,2.68,0,0,1,43.39,18a2.09,2.09,0,0,1-.8-.87,2.46,2.46,0,0,1-.26-1.15,3.07,3.07,0,0,1,.36-1.4A6.74,6.74,0,0,1,44,12.86c-.29-.46-.52-.85-.71-1.18a5,5,0,0,1-.41-.9,2.63,2.63,0,0,1-.13-.84,2.36,2.36,0,0,1,.26-1.15,1.75,1.75,0,0,1,.75-.7,2.88,2.88,0,0,1,2.23,0,1.55,1.55,0,0,1,.7.61,1.73,1.73,0,0,1,.25.95,2.29,2.29,0,0,1-.28,1,5.1,5.1,0,0,1-.78,1.1,12.46,12.46,0,0,1-1.21,1.18l2.22,3.49a3.4,3.4,0,0,0,.5-.84,8.53,8.53,0,0,0,.35-1,3.75,3.75,0,0,0,.13-.86h.61a4.42,4.42,0,0,1-.14,1A6.78,6.78,0,0,1,48,15.86a4.34,4.34,0,0,1-.66,1,2.16,2.16,0,0,0,.65.6,1.27,1.27,0,0,0,.61.14v.62h-.14l-.14,0a1.52,1.52,0,0,1-.5-.15,2.06,2.06,0,0,1-.47-.32,3.44,3.44,0,0,1-.41-.44A3.25,3.25,0,0,1,46,18,2.44,2.44,0,0,1,44.75,18.28Zm0-.56a2.06,2.06,0,0,0,.94-.21,3.1,3.1,0,0,0,.86-.66l-2.24-3.51a6.08,6.08,0,0,0-1,1.41A2.93,2.93,0,0,0,43,16a2.14,2.14,0,0,0,.17.81,1.57,1.57,0,0,0,.55.68A1.8,1.8,0,0,0,44.75,17.72Zm-.27-5.19c.32-.32.63-.63.91-.95a5.08,5.08,0,0,0,.68-1,2.18,2.18,0,0,0,.25-1,1,1,0,0,0-.38-.88,1.57,1.57,0,0,0-1-.31,1.37,1.37,0,0,0-1.12.44,1.65,1.65,0,0,0-.36,1.07,2.79,2.79,0,0,0,.26,1.15A11.62,11.62,0,0,0,44.48,12.53Z"/><path class="c" d="M53.75,18.14V8h2.39a2.54,2.54,0,0,1,1.43.35,1.81,1.81,0,0,1,.73.93,4.08,4.08,0,0,1,.2,1.35,4,4,0,0,1-.2,1.29,2.05,2.05,0,0,1-.73,1,2.28,2.28,0,0,1-1.42.39H54.43v4.86Zm.68-5.39H56a2.13,2.13,0,0,0,1-.21,1.29,1.29,0,0,0,.6-.69,3.34,3.34,0,0,0,.19-1.26,3.63,3.63,0,0,0-.18-1.28,1.08,1.08,0,0,0-.56-.64,2.52,2.52,0,0,0-1-.18H54.43Z"/><path class="c" d="M60.38,18.14V8H61V18.14Z"/><path class="c" d="M64.44,18.26a1.47,1.47,0,0,1-.77-.2,1.38,1.38,0,0,1-.51-.56,1.84,1.84,0,0,1-.18-.83,2.47,2.47,0,0,1,.12-.81,1.61,1.61,0,0,1,.43-.64,4.2,4.2,0,0,1,.9-.64c.39-.22.9-.48,1.52-.77v-.52a5.59,5.59,0,0,0-.1-1.23,1.1,1.1,0,0,0-.31-.62,1,1,0,0,0-.6-.17,1.45,1.45,0,0,0-.55.1.91.91,0,0,0-.44.39,1.85,1.85,0,0,0-.17.88v.19h-.65a2.42,2.42,0,0,1,.42-1.56,1.74,1.74,0,0,1,1.42-.5,1.4,1.4,0,0,1,1.28.57,3.71,3.71,0,0,1,.36,1.88v3.65c0,.07,0,.2,0,.39s0,.37,0,.54,0,.29,0,.34h-.58c0-.17,0-.36-.06-.55s0-.33-.05-.41a1.69,1.69,0,0,1-.57.76A1.47,1.47,0,0,1,64.44,18.26Zm.16-.56a1.1,1.1,0,0,0,.57-.14,1.79,1.79,0,0,0,.45-.38,2.63,2.63,0,0,0,.33-.49V14.3c-.45.23-.82.43-1.12.6a4.64,4.64,0,0,0-.7.48,1.29,1.29,0,0,0-.37.51,1.73,1.73,0,0,0-.11.68,1.11,1.11,0,0,0,.3.9A1.07,1.07,0,0,0,64.6,17.7Z"/><path class="c" d="M68.36,20v-.54a3.33,3.33,0,0,0,1-.12.71.71,0,0,0,.43-.32,1,1,0,0,0,.09-.44,2.78,2.78,0,0,0-.06-.54c0-.19-.09-.39-.14-.59L68.2,10.88h.65l1.43,6.64,1.39-6.64h.66l-1.77,7.86a1.59,1.59,0,0,1-.32.68,1.42,1.42,0,0,1-.62.4,3.06,3.06,0,0,1-1,.13Z"/></g></g><line class="d" x1="30.27" y1="24.17" x2="70.26" y2="24.17"/><path class="e" d="M143.69,75.63h-81a20.11,20.11,0,1,1,0-40.21h81.05a20.11,20.11,0,1,1,0,40.21Zm-81-39.21a19.11,19.11,0,1,0,0,38.21h81.05a19.11,19.11,0,1,0,0-38.21Z"/><polygon class="e" points="96.42 104.84 96.42 103.6 112.35 94.47 96.42 85.49 96.42 84.11 114.38 94.47 96.42 104.84"/><line class="d" x1="88.14" y1="107.67" x2="118.19" y2="107.67"/></svg>