<svg xmlns="http://www.w3.org/2000/svg" viewBox="0 0 107.31 130.24"><defs><style>.cls-1{fill:#fff;}.cls-2{fill:#eb2626;}</style></defs><title>Asset 1</title><g id="Layer_2" data-name="Layer 2"><g id="Layer_1-2" data-name="Layer 1"><path class="cls-1" d="M96.19,64.77A36.22,36.22,0,0,0,69.61,53.82H37.54A15.54,15.54,0,0,1,25.94,49a15.8,15.8,0,0,1-4.51-11.44,15.7,15.7,0,0,1,4.51-11.28,14.57,14.57,0,0,1,5.32-3.54,16,16,0,0,1,6.28-1.13H77.22L91.8,0H37.54A35.77,35.77,0,0,0,11,11.12,36.39,36.39,0,0,0,0,37.54,36.86,36.86,0,0,0,11,64.29a36.23,36.23,0,0,0,26.58,11H69.61a15.49,15.49,0,0,1,11.44,4.83,15.7,15.7,0,0,1,3.54,17.56A14,14,0,0,1,82.75,101a27.71,27.71,0,0,1,5.63,15.61,21.73,21.73,0,0,1-1.18,8.05,38.2,38.2,0,0,0,9-6.73,37.35,37.35,0,0,0,0-53.18"/><path class="cls-2" d="M81.76,115.55a14.69,14.69,0,1,1-14.69-14.69,14.68,14.68,0,0,1,14.69,14.69"/></g></g></svg>