<svg xmlns="http://www.w3.org/2000/svg" viewBox="0 0 153.11 51.99"><defs><style>.a{isolation:isolate;}.b{fill:#fff;}.c,.d{fill:none;stroke-width:3px;}.c{stroke:#fff;}.d{stroke:#ec2726;}</style></defs><title>sign-out</title><g class="a"><g class="a"><path class="b" d="M7.41,35.37a7.42,7.42,0,0,1-4-1A6.18,6.18,0,0,1,1,31.61a12.4,12.4,0,0,1-1-4.22l1.79-.57A17.7,17.7,0,0,0,2.6,30.4a5.05,5.05,0,0,0,1.69,2.41,5.16,5.16,0,0,0,3.16.85A5.28,5.28,0,0,0,11,32.52a4.81,4.81,0,0,0,1.31-3.8,6.53,6.53,0,0,0-1-3.63,20.65,20.65,0,0,0-2.94-3.47L2.74,16A10,10,0,0,1,.68,13.14a7.18,7.18,0,0,1-.64-3A5.88,5.88,0,0,1,1.92,5.5,7.21,7.21,0,0,1,6.8,3.87a9.08,9.08,0,0,1,2.81.4A5.63,5.63,0,0,1,11.8,5.56a6.05,6.05,0,0,1,1.46,2.38A13.78,13.78,0,0,1,14,11.58L12.2,12a12.31,12.31,0,0,0-.72-3.61A4.27,4.27,0,0,0,9.8,6.25a5.42,5.42,0,0,0-3-.71,5.65,5.65,0,0,0-3.5,1.07A4,4,0,0,0,1.94,10a5.85,5.85,0,0,0,.47,2.28A8.24,8.24,0,0,0,4.18,14.7l5.55,5.47a23.42,23.42,0,0,1,3.21,3.9,8.13,8.13,0,0,1,1.35,4.54,7.45,7.45,0,0,1-.88,3.82A5.33,5.33,0,0,1,11,34.65,8.43,8.43,0,0,1,7.41,35.37Z"/><path class="b" d="M18.05,10.14V6.65H20.1v3.49Zm0,24.85V13H20.1V35Z"/><path class="b" d="M30.44,42.44A15.5,15.5,0,0,1,26.56,42a4.94,4.94,0,0,1-2.41-1.29,3,3,0,0,1-.82-2.16,4,4,0,0,1,.59-2.11,7.44,7.44,0,0,1,1.48-1.75,9,9,0,0,1,1.85-1.27,5.25,5.25,0,0,1-2-.94,1.87,1.87,0,0,1-.63-1.5,3.12,3.12,0,0,1,.76-2,16,16,0,0,1,2-2,6.06,6.06,0,0,1-2.26-3,11.46,11.46,0,0,1-.63-3.84,10.26,10.26,0,0,1,.63-3.55,6.63,6.63,0,0,1,2-2.87,5.24,5.24,0,0,1,3.51-1.14,4.85,4.85,0,0,1,3.14.91,7.19,7.19,0,0,1,1.73,2,5.72,5.72,0,0,1,1.21-1.5A4.77,4.77,0,0,1,38.38,13l.53-.19.57,1.52a6,6,0,0,0-1.33.49,8.24,8.24,0,0,0-1.25.78,4.94,4.94,0,0,0-.95.93,9.38,9.38,0,0,1,.51,1.88,11,11,0,0,1,.21,1.85,11.71,11.71,0,0,1-.61,3.91A5.79,5.79,0,0,1,34.12,27a5.57,5.57,0,0,1-3.49,1,8.3,8.3,0,0,1-1.28-.11,7,7,0,0,1-1.08-.27,17,17,0,0,0-1.33,1.5,2.51,2.51,0,0,0-.61,1.5,1.06,1.06,0,0,0,.44.92,3.91,3.91,0,0,0,1.39.49l3.57.64A10.19,10.19,0,0,1,36,34.31a3.83,3.83,0,0,1,1.53,3.27,4,4,0,0,1-1,2.79A5.71,5.71,0,0,1,33.93,42,11.73,11.73,0,0,1,30.44,42.44Zm0-1.63a8.72,8.72,0,0,0,3.8-.76,2.53,2.53,0,0,0,1.55-2.43,2.91,2.91,0,0,0-.36-1.45A3,3,0,0,0,34.05,35,11.77,11.77,0,0,0,31,34.2l-2.39-.42a14.62,14.62,0,0,0-1.47,1,6.83,6.83,0,0,0-1.42,1.42,3,3,0,0,0-.61,1.88,2.17,2.17,0,0,0,1.39,2.09A9.64,9.64,0,0,0,30.44,40.81Zm.19-14.29a3.65,3.65,0,0,0,2.24-.63,3.9,3.9,0,0,0,1.25-1.59,7.46,7.46,0,0,0,.55-2.06,16.15,16.15,0,0,0,.14-2,12.5,12.5,0,0,0-.17-1.92,7.76,7.76,0,0,0-.63-2,4.1,4.1,0,0,0-1.27-1.55,3.49,3.49,0,0,0-2.15-.61,3.4,3.4,0,0,0-2.17.65,4.57,4.57,0,0,0-1.31,1.63,7.23,7.23,0,0,0-.64,2,10.59,10.59,0,0,0-.18,1.79,14.7,14.7,0,0,0,.16,2,7.45,7.45,0,0,0,.6,2.07,4.16,4.16,0,0,0,1.32,1.61A3.71,3.71,0,0,0,30.63,26.52Z"/><path class="b" d="M41.23,35V13h2v2.35a8.42,8.42,0,0,1,2.36-2,5.72,5.72,0,0,1,2.85-.74,3.39,3.39,0,0,1,1.77.47,3.28,3.28,0,0,1,1.23,1.52,7.2,7.2,0,0,1,.46,2.8V35h-2V17.7A4.37,4.37,0,0,0,49.27,15a2.15,2.15,0,0,0-1.69-.73,4.39,4.39,0,0,0-2.23.67,8.83,8.83,0,0,0-2.11,1.77V35Z"/><path class="b" d="M70.91,35.41a7.81,7.81,0,0,1-4.66-1.2A6.14,6.14,0,0,1,64,31a15.81,15.81,0,0,1-.64-4.7V12.8A14.34,14.34,0,0,1,64,8.16,6.13,6.13,0,0,1,66.33,5a8,8,0,0,1,4.58-1.14A8,8,0,0,1,75.49,5a6.06,6.06,0,0,1,2.33,3.15,14.33,14.33,0,0,1,.69,4.64V26.29A15.5,15.5,0,0,1,77.86,31a6.16,6.16,0,0,1-2.3,3.25A7.8,7.8,0,0,1,70.91,35.41Zm0-1.71a5.71,5.71,0,0,0,3.4-.87A4.45,4.45,0,0,0,76,30.38a13.43,13.43,0,0,0,.46-3.67V12.5A13.17,13.17,0,0,0,76,8.85a4.39,4.39,0,0,0-1.63-2.41,5.79,5.79,0,0,0-3.42-.86,5.82,5.82,0,0,0-3.41.86,4.42,4.42,0,0,0-1.65,2.41,13.2,13.2,0,0,0-.45,3.65V26.71a13.45,13.45,0,0,0,.45,3.67,4.56,4.56,0,0,0,1.65,2.45A5.75,5.75,0,0,0,70.91,33.7Z"/><path class="b" d="M86.14,35.33a3.07,3.07,0,0,1-3-2,7.19,7.19,0,0,1-.45-2.79V13h2V30.32a4.29,4.29,0,0,0,.63,2.73,2.1,2.1,0,0,0,1.69.73A4.41,4.41,0,0,0,89.37,33a9.51,9.51,0,0,0,2.17-1.92V13h2V35h-2V32.41a8.81,8.81,0,0,1-2.45,2.13A5.85,5.85,0,0,1,86.14,35.33Z"/><path class="b" d="M102.71,35.22a3.59,3.59,0,0,1-2.28-.61,2.76,2.76,0,0,1-1-1.63,10.92,10.92,0,0,1-.23-2.32V14.36H96.33V13h2.88V6h2v7H105v1.33h-3.72v16a6.36,6.36,0,0,0,.34,2.5q.34.72,1.56.72a6.09,6.09,0,0,0,.82,0l.81-.13V35a5.7,5.7,0,0,1-1,.17A10,10,0,0,1,102.71,35.22Z"/></g></g><line class="c" x1="130.11" y1="0.99" x2="151.99" y2="25.74"/><line class="c" x1="130.11" y1="48.49" x2="151.99" y2="23.74"/><line class="d" x1="58.61" y1="50.49" x2="12.61" y2="50.49"/></svg>