<svg width="67" height="67" viewBox="0 0 67 67" fill="none" xmlns="http://www.w3.org/2000/svg">
<path d="M44.8539 16.5251L33.0503 28.3288L21.2466 16.5251C19.9435 15.222 17.8283 15.222 16.5251 16.5251C15.222 17.8283 15.222 19.9435 16.5251 21.2466L28.3288 33.0503L16.5251 44.8539C15.222 46.1571 15.222 48.2723 16.5251 49.5754C17.8283 50.8785 19.9435 50.8785 21.2466 49.5754L33.0503 37.7717L44.8539 49.5754C46.1571 50.8785 48.2723 50.8785 49.5754 49.5754C50.8785 48.2723 50.8785 46.1571 49.5754 44.8539L37.7717 33.0503L49.5754 21.2466C50.8785 19.9435 50.8785 17.8283 49.5754 16.5251C48.2723 15.222 46.1571 15.222 44.8539 16.5251Z" fill="#DFDFDF"/>
</svg>
